<?xml version="1.0" standalone="no"?>
<!DOCTYPE svg PUBLIC "-//W3C//DTD SVG 20010904//EN"
 "http://www.w3.org/TR/2001/REC-SVG-20010904/DTD/svg10.dtd">
<svg version="1.0" xmlns="http://www.w3.org/2000/svg"
 width="1280.000000pt" height="1204.000000pt" viewBox="0 0 1280.000000 1204.000000"
 preserveAspectRatio="xMidYMid meet">
<metadata>
Created by potrace 1.15, written by Peter Selinger 2001-2017
</metadata>
<g transform="translate(0.000000,1204.000000) scale(0.100000,-0.100000)"
fill="black" stroke="none">
<path d="M3500 11793 c-1541 -82 -2806 -1261 -2994 -2788 -80 -648 39 -1218
380 -1832 137 -246 502 -784 653 -962 39 -45 68 -88 64 -94 -3 -5 -2 -7 4 -4
11 7 56 -35 51 -49 -2 -5 0 -9 4 -9 10 0 58 -47 58 -57 0 -5 -6 -6 -12 -2 -7
4 -4 -2 6 -14 11 -12 22 -20 24 -17 7 7 52 -35 52 -48 0 -5 -8 -3 -17 4 -10 7
-5 -1 11 -19 34 -36 49 -44 20 -9 -10 12 -4 9 14 -7 33 -31 45 -58 15 -35 -10
7 -5 -1 11 -19 34 -37 48 -43 21 -9 -10 12 14 -12 53 -53 39 -41 71 -79 72
-85 0 -5 -25 17 -56 50 -145 156 0 -11 500 -575 154 -173 281 -317 283 -319 2
-2 5 -2 7 0 2 2 -144 171 -326 374 -349 391 -413 465 -405 465 3 0 72 -75 153
-167 911 -1027 3743 -4159 4166 -4608 l57 -60 58 55 c31 30 48 44 37 30 -40
-47 -38 -50 18 -34 80 24 128 56 222 150 37 36 176 186 223 240 10 12 52 59
93 105 41 46 118 131 170 189 52 58 129 143 170 189 41 46 83 93 93 105 10 12
35 39 55 61 20 22 71 78 112 125 41 47 92 103 112 125 20 22 45 49 55 61 10
12 52 59 93 105 159 176 275 304 285 315 5 6 37 42 70 80 33 37 105 118 159
178 55 61 131 147 170 190 39 44 96 107 126 141 167 185 229 254 350 390 74
83 137 152 140 155 3 3 59 66 125 140 66 74 125 140 130 146 6 6 44 48 85 94
41 46 118 132 170 190 52 58 129 144 170 190 41 46 80 88 85 94 6 6 64 72 130
146 66 74 125 140 130 146 6 6 44 48 85 94 41 46 80 88 85 94 6 6 44 49 85 96
41 47 92 103 112 125 20 22 45 49 55 61 17 20 67 76 258 289 361 401 470 548
730 980 94 155 247 456 294 575 72 186 81 210 81 217 0 4 -34 -61 -75 -145
-41 -83 -77 -152 -80 -152 -3 0 17 44 44 98 231 461 332 887 318 1346 -25 816
-337 1553 -907 2140 -519 534 -1196 867 -1935 951 -182 21 -515 21 -700 0
-259 -29 -507 -88 -762 -182 -149 -55 -429 -193 -571 -283 -349 -219 -696
-550 -928 -883 -21 -31 -42 -57 -45 -57 -3 0 -28 33 -54 73 -208 313 -496 608
-815 834 -576 408 -1283 614 -1980 576z m8305 -4673 c-9 -16 -18 -30 -21 -30
-2 0 2 14 11 30 9 17 18 30 21 30 2 0 -2 -13 -11 -30z"/>
<path d="M2730 4836 c0 -6 202 -238 240 -276 3 -3 59 -66 125 -140 66 -74 141
-157 166 -185 25 -27 66 -72 90 -100 24 -27 65 -72 90 -100 25 -27 66 -72 90
-100 24 -27 65 -72 90 -100 25 -27 66 -72 90 -100 24 -27 65 -72 90 -100 25
-27 66 -72 90 -100 24 -27 49 -54 55 -60 7 -5 33 -35 59 -65 27 -30 89 -100
139 -155 50 -54 118 -129 151 -165 33 -36 101 -111 151 -165 50 -55 113 -125
139 -155 27 -30 51 -57 54 -60 4 -3 49 -52 101 -110 52 -58 115 -127 140 -155
26 -27 67 -72 91 -100 24 -27 51 -57 59 -65 8 -8 53 -58 100 -110 47 -52 92
-102 100 -110 8 -8 35 -37 59 -65 25 -27 84 -93 131 -145 47 -52 106 -117 131
-145 24 -27 53 -59 64 -70 11 -12 54 -59 95 -104 41 -46 86 -96 100 -111 14
-15 59 -64 100 -110 188 -209 303 -329 298 -314 -2 9 -365 414 -388 434 -6 5
-620 680 -1300 1430 -157 173 -355 391 -440 485 -157 172 -1200 1330 -1297
1440 -29 32 -53 55 -53 51z"/>
<path d="M6220 976 c0 -2 8 -10 18 -17 15 -13 16 -12 3 4 -13 16 -21 21 -21
13z"/>
</g>
</svg>
